<?xml version="1.0" encoding="UTF-8" standalone="no"?>
<!-- Created with Inkscape (http://www.inkscape.org/) -->

<svg
   width="24"
   height="24"
   viewBox="0 0 24 24"
   version="1.1"
   id="SVGRoot"
   xmlns="http://www.w3.org/2000/svg"
   xmlns:svg="http://www.w3.org/2000/svg">
  <defs
     id="defs9" />
  <g
     id="layer2"
     style="display:none">
    <g
       id="g2541"
       transform="matrix(1.2,0,0,1.090909,-2.2085152,-1.2306218)">
      <path
         style="fill:#000000;fill-opacity:1;stroke:none;stroke-width:4.185;stroke-linecap:butt;stroke-dasharray:none;stroke-opacity:1"
         id="rect2522"
         width="20"
         height="6"
         x="1.8404293"
         y="1.1280701"
         d="M 4.8404294,1.1280701 H 18.840429 a 3,3 45 0 1 3,3 3,3 135 0 1 -3,3 H 4.8404294 A 3.0000001,3.0000001 45 0 1 1.8404293,4.12807 3,3 135 0 1 4.8404294,1.1280701 Z" />
      <path
         style="fill:#000000;fill-opacity:1;stroke:none;stroke-width:4.185;stroke-linecap:butt;stroke-dasharray:none;stroke-opacity:1"
         id="rect2524"
         width="20"
         height="6.000001"
         x="1.8404293"
         y="9.1280689"
         d="M 4.8404305,9.1280689 H 18.840428 a 3.0000012,3.0000012 45 0 1 3.000001,3.0000011 2.9999998,2.9999998 135 0 1 -3,3 H 4.8404294 a 3.0000001,3.0000001 45 0 1 -3.0000001,-3 3.000001,3.000001 135 0 1 3.0000012,-3.0000011 z" />
      <path
         style="fill:#000000;fill-opacity:1;stroke:none;stroke-width:4.58444;stroke-linecap:butt;stroke-dasharray:none;stroke-opacity:1"
         id="rect2526"
         width="20"
         height="6.000001"
         x="1.8404293"
         y="17.128071"
         d="M 4.8404294,17.128071 H 18.840429 a 2.9999999,2.9999999 45 0 1 3,3 3.0000011,3.0000011 135 0 1 -3.000001,3.000001 H 4.840431 A 3.0000017,3.0000017 45 0 1 1.8404293,20.12807 2.9999997,2.9999997 135.00001 0 1 4.8404294,17.128071 Z" />
    </g>
  </g>
  <g
     id="g2551">
    <g
       id="g2549"
       transform="matrix(1.2,0,0,1.090909,-2.2085152,-1.2306218)">
      <path
         style="fill:#000000;fill-opacity:1;stroke:none;stroke-width:4.185;stroke-linecap:butt;stroke-dasharray:none;stroke-opacity:1"
         id="path2543"
         width="20"
         height="5.5000005"
         x="1.8404293"
         y="1.1280701"
         d="m 3.507096,1.1280701 h 16.5 a 1.8333334,1.8333334 45 0 1 1.833333,1.8333334 V 4.961404 A 1.6666666,1.6666666 135 0 1 20.173763,6.6280706 H 3.507096 A 1.6666667,1.6666667 45 0 1 1.8404293,4.9614039 V 2.7947368 A 1.6666667,1.6666667 135 0 1 3.507096,1.1280701 Z" />
      <path
         style="fill:#000000;fill-opacity:1;stroke:none;stroke-width:4.185;stroke-linecap:butt;stroke-dasharray:none;stroke-opacity:1"
         id="path2545"
         width="20"
         height="5.5"
         x="1.8404293"
         y="9.3780708"
         d="m 3.507096,9.3780708 h 16.666667 a 1.6666666,1.6666666 45 0 1 1.666666,1.6666662 v 2.166667 a 1.6666666,1.6666666 135 0 1 -1.666666,1.666667 H 3.507096 A 1.6666667,1.6666667 45 0 1 1.8404293,13.211404 l 0,-2.166666 A 1.6666667,1.6666667 135 0 1 3.507096,9.3780708 Z" />
      <path
         style="fill:#000000;fill-opacity:1;stroke:none;stroke-width:4.58444;stroke-linecap:butt;stroke-dasharray:none;stroke-opacity:1"
         id="path2547"
         width="20"
         height="5.5000005"
         x="1.8404293"
         y="17.628071"
         d="M 3.6737634,17.628071 H 20.007095 a 1.8333341,1.8333341 45 0 1 1.833334,1.833334 v 1.833333 a 1.8333329,1.8333329 135 0 1 -1.833333,1.833333 H 3.6737622 A 1.8333329,1.8333329 45 0 1 1.8404293,21.294738 v -1.833333 a 1.8333341,1.8333341 135 0 1 1.8333341,-1.833334 z" />
    </g>
  </g>
</svg>
