<?xml version="1.0" standalone="no"?>
<!DOCTYPE svg PUBLIC "-//W3C//DTD SVG 20010904//EN"
 "http://www.w3.org/TR/2001/REC-SVG-20010904/DTD/svg10.dtd">
<svg version="1.0" xmlns="http://www.w3.org/2000/svg"
 width="700.000000pt" height="700.000000pt" viewBox="0 0 700.000000 700.000000"
 preserveAspectRatio="xMidYMid meet">
<metadata>
Created by potrace 1.14, written by Peter Selinger 2001-2017
</metadata>
<g transform="translate(0.000000,700.000000) scale(0.100000,-0.100000)"
fill="#000000" stroke="none">
<path d="M710 6295 c0 -3 628 -633 1395 -1400 l1395 -1395 -1395 -1395 c-767
-767 -1395 -1397 -1395 -1400 0 -3 443 -5 985 -5 l985 0 905 905 905 905 905
-905 905 -905 0 990 0 990 -410 410 -410 410 410 410 410 410 0 985 c0 542 -2
985 -5 985 -3 0 -410 -405 -905 -900 l-900 -900 -905 905 -905 905 -985 0
c-542 0 -985 -2 -985 -5z m2619 -1304 c462 -462 836 -841 831 -841 -6 0 -82
-72 -170 -160 l-160 -160 -1000 1000 c-550 550 -1000 1001 -1000 1003 0 1 148
2 329 1 l328 -1 842 -842z m2505 -164 l-1 -314 -342 -342 -341 -341 -165 165
-165 165 503 503 c291 292 504 498 507 490 3 -7 5 -154 4 -326z m-1179 -1162
l165 -165 -165 -165 -164 -165 -166 165 -165 165 163 164 c89 91 163 165 164
165 2 1 77 -73 168 -164z m-660 -660 l165 -165 -838 -838 -837 -837 -318 2
c-174 1 -322 2 -327 2 -8 1 1976 1997 1988 2000 2 1 77 -73 167 -164z m1510
-190 l330 -330 -1 -322 c0 -178 -2 -324 -5 -326 -2 -2 -232 225 -512 505 -279
279 -501 508 -495 509 7 0 83 71 168 158 125 128 158 156 170 147 8 -6 163
-160 345 -341z"/>
</g>
</svg>
