<?xml version="1.0" standalone="no"?>
<!DOCTYPE svg PUBLIC "-//W3C//DTD SVG 20010904//EN"
 "http://www.w3.org/TR/2001/REC-SVG-20010904/DTD/svg10.dtd">
<svg version="1.0" xmlns="http://www.w3.org/2000/svg"
 width="700.000000pt" height="700.000000pt" viewBox="0 0 700.000000 700.000000"
 preserveAspectRatio="xMidYMid meet">
<metadata>
Created by potrace 1.14, written by Peter Selinger 2001-2017
</metadata>
<g transform="translate(0.000000,700.000000) scale(0.100000,-0.100000)"
fill="#000000" stroke="none">
<path d="M3983 6285 c-328 -59 -603 -315 -688 -640 -23 -89 -28 -160 -28 -402
-1 -150 -4 -223 -11 -224 -6 0 -414 -2 -906 -3 -968 -3 -935 -1 -1085 -57
-205 -76 -396 -255 -486 -455 -57 -124 -73 -205 -73 -359 -1 -86 4 -159 12
-190 70 -262 218 -459 434 -578 70 -39 183 -82 244 -92 104 -18 207 -20 1010
-19 l860 1 0 -409 0 -408 -237 0 c-271 0 -358 -11 -490 -63 -269 -106 -466
-336 -535 -623 -22 -92 -22 -286 0 -378 65 -273 248 -495 500 -610 50 -23 93
-37 191 -62 40 -11 242 -13 300 -3 360 58 651 340 722 698 10 53 15 151 16
326 l1 250 875 -1 c482 0 903 4 936 8 343 46 634 305 727 648 25 91 30 313 9
400 -73 303 -278 539 -561 643 -135 49 -146 50 -1096 50 l-890 1 0 407 0 407
275 5 c152 2 287 7 300 10 196 51 326 121 451 246 37 36 81 87 99 114 60 88
124 235 137 312 2 17 8 54 13 84 12 75 5 214 -13 295 -62 266 -241 488 -486
604 -66 31 -150 58 -211 68 -71 12 -247 11 -316 -1z m226 -459 c105 -14 242
-110 290 -204 84 -165 56 -360 -69 -482 -56 -54 -119 -91 -190 -110 -57 -15
-488 -20 -500 -5 -10 13 -6 460 5 500 27 102 111 208 204 259 47 25 180 58
206 50 6 -2 30 -5 54 -8z m-943 -1683 l-1 -408 -865 -1 c-615 0 -880 3 -915
11 -202 46 -340 243 -313 449 20 155 132 288 285 336 55 18 108 19 934 19
l875 1 0 -407z m2281 -895 c112 -41 196 -115 245 -216 31 -62 33 -73 33 -172
0 -97 -2 -110 -32 -173 -40 -85 -111 -155 -201 -199 l-67 -33 -896 -3 -895 -3
0 409 -1 408 886 -1 c771 -1 891 -3 928 -17z m-2283 -1278 c3 -8 3 -116 2
-240 -3 -260 -11 -301 -83 -397 -150 -201 -438 -221 -614 -42 -198 201 -138
531 117 651 82 38 122 43 372 43 171 0 203 -2 206 -15z"/>
</g>
</svg>
